# xmcd
#
# Track frame offsets:
# 150
# 25026
# 55547
# 76465
# 94160
# 124210
# 149190
# 176220
#
# Disc length: 2723 seconds
#
#
# Revision: 1
# Processed by: cddbd v1.5.2PL0 Copyright (c) Steve Scherf et al.
# Submitted via: FreeRIP 2.90 
#
DISCID=6d0aa108
DTITLE=מקסים קרוצ'י - MAXIME KAROUTCHI - מקסים קרוצ'י
DYEAR=1900
DGENRE=Other
TTITLE0=רחת וומשת - RAHAT OUMCHAT
TTITLE1=זית נסיידו - ZIT NSSIDOU
TTITLE2=דק לחביב - DAK LAHBIB
TTITLE3=תעלי - TAALI
TTITLE4=למליין - LAMLAYANE
TTITLE5=מזל חיי מזל - MAZAL HAY MAZAL (LIVE)
TTITLE6=כלתני נסיין - KHALITINI NSSAYAN (LIVE)
TTITLE7=גוד ביי בסלמה עליק - GOOD BYE BASSLAMA ALIK
EXTD=
EXTT0=
EXTT1=
EXTT2=
EXTT3=
EXTT4=
EXTT5=
EXTT6=
EXTT7=
PLAYORDER=
